<svg width="75" height="82" viewBox="0 0 75 82" fill="none" xmlns="http://www.w3.org/2000/svg">
<g clip-path="url(#clip0_1_2)">
<path d="M66.59 14.45L45.49 2.19C42.97 0.73 40.16 0 37.36 0C34.55 0 31.75 0.73 29.23 2.19L8.13 14.45C3.1 17.38 0 22.78 0 28.62V53.14C0 58.98 3.1 64.39 8.13 67.31L29.23 79.57C31.75 81.03 34.55 81.76 37.36 81.76C40.17 81.76 42.97 81.03 45.49 79.57L66.59 67.31C71.62 64.39 74.72 58.98 74.72 53.14V28.62C74.71 22.78 71.62 17.38 66.59 14.45ZM66.09 53.14C66.09 55.87 64.63 58.42 62.27 59.79L41.17 72.05C40.01 72.73 38.69 73.08 37.35 73.08C36.01 73.08 34.69 72.73 33.53 72.05L12.43 59.79C10.08 58.42 8.61 55.87 8.61 53.14V28.62C8.61 25.89 10.07 23.34 12.43 21.97L33.53 9.71C34.69 9.04 36.01 8.68 37.35 8.68C38.69 8.68 40.01 9.04 41.17 9.71L62.27 21.97C64.62 23.34 66.09 25.89 66.09 28.62V53.14Z" fill="#E53F49"/>
</g>
<defs>
<clipPath id="clip0_1_2">
<rect width="74.71" height="81.76" fill="white"/>
</clipPath>
</defs>
</svg>
