<svg version="1.1" id="Calque_1" xmlns="http://www.w3.org/2000/svg" xmlns:xlink="http://www.w3.org/1999/xlink" x="0px" y="0px" viewBox="0 0 146 34" style="enable-background:new 0 0 146 34;" xml:space="preserve">
    <g>
        <path fill="#FFF" d="M21.5,11.1l-6.7-3.9c-0.8-0.5-1.7-0.7-2.6-0.7c-0.9,0-1.8,0.2-2.6,0.7l-6.7,3.9c-1.6,0.9-2.6,2.6-2.6,4.5v7.8
            c0,1.9,1,3.6,2.6,4.5l6.7,3.9c0.8,0.5,1.7,0.7,2.6,0.7c0.9,0,1.8-0.2,2.6-0.7l6.7-3.9c1.6-0.9,2.6-2.7,2.6-4.5v-7.8
            C24.1,13.7,23.1,12,21.5,11.1z M21.3,23.4c0,0.9-0.5,1.7-1.2,2.1l-6.7,3.9c-0.4,0.2-0.8,0.3-1.2,0.3c-0.4,0-0.8-0.1-1.2-0.3
            l-6.7-3.9C3.5,25.1,3,24.2,3,23.4v-7.8c0-0.9,0.5-1.7,1.2-2.1l6.7-3.9c0.4-0.2,0.8-0.3,1.2-0.3c0.4,0,0.8,0.1,1.2,0.3l6.7,3.9
            c0.7,0.4,1.2,1.2,1.2,2.1V23.4z"></path>
        <path fill="#FFF"  d="M44.9,23.4c0,0-2.3,2.3-5.2,2.3c-3.6,0-5.5-2.8-5.5-5.5c0-3.2,2.2-5.4,5.3-5.4c2.7,0,4.6,1.9,4.6,1.9l0.2,0.2l2.3-3.5
            l-0.1-0.1c-0.1-0.1-2.4-2.8-7.2-2.8c-5.9,0-10.2,4.1-10.2,9.8S33.4,30,39.3,30c5,0,7.6-2.9,7.7-3.1l0.1-0.1l-2-3.7L44.9,23.4z"></path>
        <path fill="#FFF"  d="M57.1,10.3c-4.4,0-7.2,2.2-7.3,2.3l-0.2,0.1l1.9,3.7l0.2-0.2c0,0,2.4-1.7,4.9-1.7c2.2,0,3.3,1,3.3,3l-0.4,0
            c-4.1,0-11.1,0.8-11.1,6.5c0,3.9,3.2,6,6.5,6c2.2,0,3.7-0.9,4.5-1.7c0.4-0.3,0.6-0.7,0.9-1c0,0.1,0,0.3,0,0.4v1.7h4.7V17.8
            C64.9,13,62.1,10.3,57.1,10.3z M60,21.4c0,2.2-1.7,4.6-3.9,4.6c-1.7,0-2.5-1.1-2.5-2.1c0-2.2,3.2-2.6,5.9-2.6H60V21.4z"></path>
        <path fill="#FFF"  d="M79.6,10.5c-2.3,0-4.5,1.5-5.6,3.7c0,0,0-0.1,0-0.1v-3.4h-4.9v18.8h5V22c0-1.2,0.1-2.1,0.4-2.9c0.9-2.7,3-3.7,4.8-3.7
            c0.6,0,1,0.1,1,0.1l0.3,0v-5l-0.2,0C80.5,10.6,80.1,10.5,79.6,10.5z"></path>
        <path fill="#FFF" d="M93.6,10.3c-2.9,0-4.6,1.4-5.3,2.2c0-0.2,0-0.5,0-0.9V3.5h-5v26h4.8v-1.3c0-0.2,0-0.4,0-0.6c0.7,0.8,2.4,2.3,5.2,2.3
            c5.1,0,8.6-4,8.6-9.8C102,14.3,98.6,10.3,93.6,10.3z M92.5,25.7c-3,0-4.3-2.8-4.3-5.4c0-4.1,2.3-5.6,4.4-5.6c2.6,0,4.3,2.2,4.3,5.5
            C96.9,23.5,95.2,25.7,92.5,25.7z"></path>
        <path fill="#FFF" d="M114.2,10.3c-5.9,0-10.3,4.2-10.3,9.8s4.4,9.8,10.3,9.8c5.9,0,10.3-4.2,10.3-9.8S120.1,10.3,114.2,10.3z M114.3,25.6
            c-3,0-5.2-2.4-5.2-5.5s2.2-5.5,5.2-5.5c3,0,5.2,2.4,5.2,5.5S117.2,25.6,114.3,25.6z"></path>
        <path fill="#FFF" d="M138.9,10.3c-3.5,0-5.4,2-6.3,3.2c0-0.1,0-0.3,0-0.4v-2.4h-4.9v18.8h5v-8.6c0-1,0.1-1.7,0.3-2.4c0.7-2.2,2.5-3.6,4.7-3.6
            c1.9,0,2.7,1,2.7,3.5v11.1h5v-12C145.5,12.7,143.3,10.3,138.9,10.3z"></path>
    </g>
</svg>